<?xml version="1.0" encoding="UTF-8"?>
<svg width="24px" height="24px" viewBox="0 0 24 24" version="1.1" xmlns="http://www.w3.org/2000/svg" xmlns:xlink="http://www.w3.org/1999/xlink">
    <!-- Generator: Sketch 53.2 (72643) - https://sketchapp.com -->
    <title>icons / check 1 / 24</title>
    <desc>Created with Sketch.</desc>
    <g id="icons-/-check-1-/-24" stroke="none" stroke-width="1" fill="none" fill-rule="evenodd">
        <g id="check-Grey-3-Copy" transform="translate(4.000000, 4.000000)" fill="#939393" fill-rule="nonzero">
            <path d="M0.708571429,13.52 C0.833004071,13.2488146 0.888141409,12.9483162 0.868571429,12.648 C0.92952381,11.584 0.975238095,10.512 1.01333333,9.448 C1.01333333,9.16 0.944761905,8.872 0.96,8.584 C0.884692792,7.93145098 1.13527125,7.28426731 1.62285714,6.872 C1.7752381,6.776 1.72190476,6.584 1.84380952,6.432 C1.97333333,6.584 2.12571429,6.512 2.27809524,6.52 C2.55238095,6.52 2.68190476,6.896 2.84952381,7.136 C2.94400123,7.33099786 2.98364221,7.55021247 2.96380952,7.768 C3.04771935,8.39424969 3.04771935,9.02975031 2.96380952,9.656 C2.87459082,10.0896031 2.85655375,10.5360206 2.91047619,10.976 C2.91047619,11.392 3.10857143,11.52 3.45142857,11.344 C4.12154376,11.0536607 4.66474555,10.5118169 4.9752381,9.824 C5.01558843,9.71538669 5.09906027,9.63066277 5.20380952,9.592 C5.34095238,9.528 5.49333333,9.472 5.46285714,9.256 C5.46405404,9.21198444 5.4915209,9.17353083 5.53142857,9.16 C6.04190476,9.08 6.17904762,8.56 6.46095238,8.24 C7.06285714,7.568 7.78666667,7.056 8.35809524,6.336 C8.75833084,5.67571591 9.30463714,5.12679571 9.95047619,4.736 C10.0458887,4.70570601 10.1068885,4.60794589 10.0952381,4.504 C10.0952381,4.32 10.0952381,4.328 10.3009524,4.312 C10.3709827,4.30593078 10.4336753,4.26404072 10.4685714,4.2 C10.712381,3.552 11.4361905,3.344 11.687619,2.712 C11.687619,2.712 11.687619,2.648 11.7409524,2.64 C12.1066667,2.544 12.0838095,2.528 12.327619,2.208 C12.5223502,1.97582323 12.7451968,1.77141909 12.9904762,1.6 C13.3561905,1.32 13.432381,0.8 13.8361905,0.592 C13.9766418,0.499006348 14.1452176,0.464747402 14.3085714,0.496 C14.5980952,0.56 14.5980952,0.56 14.7504762,0.28 C14.9333333,0.28 14.88,0.704 15.1619048,0.52 C15.1619048,0.432 14.9485714,0.304 15.1619048,0.192 C15.3752381,0.08 15.6114286,-0.024 15.68,0.104 C15.8095238,0.36 15.8933333,0.008 15.9695238,0.104 L15.9695238,0.368 C15.8004382,0.401246674 15.6659792,0.536153818 15.6266667,0.712 C15.4911177,1.10063962 15.2869064,1.45891417 15.0247619,1.768 C14.8647619,2.048 14.56,2.28 14.3619048,2.568 C14.3619048,2.568 14.2857143,2.64 14.2628571,2.632 C13.8361905,2.488 13.8514286,2.976 13.6457143,3.096 C13.1657143,3.368 12.9828571,4 12.4266667,4.152 C12.3504762,4.152 12.2590476,4.152 12.2438095,4.304 C12.1904762,4.92 11.6342857,5.104 11.2838095,5.424 C10.9333333,5.744 10.88,5.936 10.6438095,6.168 C10.3957599,6.44540618 10.1078185,6.68025835 9.79047619,6.864 C9.56190476,6.976 9.6,7.344 9.34857143,7.488 C9.24190476,7.552 9.21142857,7.72 9.02095238,7.688 C8.90313163,7.688 8.80761905,7.78828822 8.80761905,7.912 C8.89142857,8.336 8.60190476,8.504 8.34285714,8.672 C7.90857143,8.96 7.72571429,9.472 7.40571429,9.84 C7.08571429,10.208 6.87238095,10.712 6.36952381,10.88 C6.33142857,10.88 6.27047619,10.928 6.27047619,10.944 C6.27047619,11.368 5.92761905,11.552 5.79047619,11.864 C5.67487197,12.1102227 5.50826209,12.3261647 5.30285714,12.496 C5.00801105,12.8641666 4.73571763,13.2516121 4.48761905,13.656 C4.13602573,14.1453059 3.74609696,14.6028988 3.32190476,15.024 L2.39238095,15.824 L1.79047619,15.824 C1.72660175,15.6478012 1.59738343,15.5063484 1.43238095,15.432 C1.13588937,15.3195259 0.935986842,15.0269413 0.92952381,14.696 C0.912198713,14.3206064 0.837599035,13.9505663 0.708571429,13.6 L0.708571429,13.52 Z" id="Path"></path>
        </g>
    </g>
</svg>